<svg width="70" height="71" viewBox="0 0 70 71" fill="none" xmlns="http://www.w3.org/2000/svg">
<path d="M5.8335 29.6666C5.8335 29.6666 14.5835 20.9166 14.5835 6.33331" stroke="black" stroke-width="5" stroke-linecap="round" stroke-linejoin="round"/>
<path d="M64.1665 29.6666C64.1665 29.6666 55.4165 20.9166 55.4165 6.33331" stroke="black" stroke-width="5" stroke-linecap="round" stroke-linejoin="round"/>
<path d="M29.1668 6.33331C29.1668 19.1666 18.6668 29.6666 5.8335 29.6666" stroke="black" stroke-width="5" stroke-linecap="round" stroke-linejoin="round"/>
<path d="M40.8335 6.33331C40.8335 19.1666 51.3335 29.6666 64.1668 29.6666" stroke="black" stroke-width="5" stroke-linecap="round" stroke-linejoin="round"/>
<path d="M5.8335 29.6667C5.8335 29.6667 11.6668 35.5 11.6668 44.25" stroke="black" stroke-width="5" stroke-linecap="round" stroke-linejoin="round"/>
<path d="M64.1668 29.6667C64.1668 29.6667 58.3335 35.5 58.3335 44.25" stroke="black" stroke-width="5" stroke-linecap="round" stroke-linejoin="round"/>
<path d="M23.3335 44.25H46.6668" stroke="black" stroke-width="5" stroke-linecap="round" stroke-linejoin="round"/>
<path d="M5.8335 64.6667V61.75C5.8335 60.2029 6.44808 58.7192 7.54204 57.6252C8.636 56.5313 10.1197 55.9167 11.6668 55.9167H23.3335C24.8806 55.9167 26.3643 56.5313 27.4583 57.6252C28.5522 58.7192 29.1668 60.2029 29.1668 61.75V64.6667" stroke="black" stroke-width="5" stroke-linecap="round" stroke-linejoin="round"/>
<path d="M40.8335 64.6667V61.75C40.8335 60.2029 41.4481 58.7192 42.542 57.6252C43.636 56.5313 45.1197 55.9167 46.6668 55.9167H58.3335C59.8806 55.9167 61.3643 56.5313 62.4583 57.6252C63.5522 58.7192 64.1668 60.2029 64.1668 61.75V64.6667" stroke="black" stroke-width="5" stroke-linecap="round" stroke-linejoin="round"/>
</svg>
