<svg width="70" height="71" viewBox="0 0 70 71" fill="none" xmlns="http://www.w3.org/2000/svg">
<path d="M62.825 44.25H49.5833C48.0362 44.25 46.5525 44.8646 45.4585 45.9585C44.3646 47.0525 43.75 48.5362 43.75 50.0833V63.325" stroke="black" stroke-width="5" stroke-linecap="round" stroke-linejoin="round"/>
<path d="M20.4165 10.2417V15.0833C20.4165 17.404 21.3384 19.6296 22.9793 21.2705C24.6203 22.9115 26.8459 23.8333 29.1665 23.8333C30.7136 23.8333 32.1973 24.4479 33.2913 25.5419C34.3853 26.6358 34.9998 28.1196 34.9998 29.6667C34.9998 32.875 37.6248 35.5 40.8332 35.5C42.3803 35.5 43.864 34.8854 44.958 33.7915C46.0519 32.6975 46.6665 31.2138 46.6665 29.6667C46.6665 26.4583 49.2915 23.8333 52.4998 23.8333H61.7457" stroke="black" stroke-width="5" stroke-linecap="round" stroke-linejoin="round"/>
<path d="M32.0832 64.5208V53C32.0832 51.4529 31.4686 49.9692 30.3746 48.8752C29.2807 47.7813 27.7969 47.1667 26.2498 47.1667C24.7027 47.1667 23.219 46.5521 22.125 45.4581C21.0311 44.3642 20.4165 42.8804 20.4165 41.3333V38.4167C20.4165 36.8696 19.8019 35.3859 18.708 34.2919C17.614 33.1979 16.1303 32.5833 14.5832 32.5833H5.979" stroke="black" stroke-width="5" stroke-linecap="round" stroke-linejoin="round"/>
<path d="M35.0002 64.6667C51.1085 64.6667 64.1668 51.6083 64.1668 35.5C64.1668 19.3917 51.1085 6.33334 35.0002 6.33334C18.8919 6.33334 5.8335 19.3917 5.8335 35.5C5.8335 51.6083 18.8919 64.6667 35.0002 64.6667Z" stroke="black" stroke-width="5" stroke-linecap="round" stroke-linejoin="round"/>
</svg>
