<svg width="70" height="71" viewBox="0 0 70 71" fill="none" xmlns="http://www.w3.org/2000/svg">
<path d="M35.0002 64.6666C51.1085 64.6666 64.1668 51.6083 64.1668 35.5C64.1668 19.3917 51.1085 6.33331 35.0002 6.33331C18.8919 6.33331 5.8335 19.3917 5.8335 35.5C5.8335 51.6083 18.8919 64.6666 35.0002 64.6666Z" stroke="black" stroke-width="5" stroke-linecap="round" stroke-linejoin="round"/>
<path d="M52.5 38.4167C51.8041 42.5363 49.6573 46.2709 46.4477 48.9456C43.2381 51.6203 39.1775 53.0584 35 53C30.8225 53.0584 26.7619 51.6203 23.5523 48.9456C20.3427 46.2709 18.1959 42.5363 17.5 38.4167H52.5Z" stroke="black" stroke-width="5" stroke-linecap="round" stroke-linejoin="round"/>
<path d="M26.25 26.75H26.2792" stroke="black" stroke-width="5" stroke-linecap="round" stroke-linejoin="round"/>
<path d="M43.75 26.75H43.7792" stroke="black" stroke-width="5" stroke-linecap="round" stroke-linejoin="round"/>
</svg>
