<svg width="70" height="71" viewBox="0 0 70 71" fill="none" xmlns="http://www.w3.org/2000/svg">
<path d="M26.25 53V15.0833L61.25 9.25V47.1667" stroke="black" stroke-width="5" stroke-linecap="round" stroke-linejoin="round"/>
<path d="M17.5 61.75C22.3325 61.75 26.25 57.8325 26.25 53C26.25 48.1675 22.3325 44.25 17.5 44.25C12.6675 44.25 8.75 48.1675 8.75 53C8.75 57.8325 12.6675 61.75 17.5 61.75Z" stroke="black" stroke-width="5" stroke-linecap="round" stroke-linejoin="round"/>
<path d="M52.5 55.9167C57.3325 55.9167 61.25 51.9992 61.25 47.1667C61.25 42.3342 57.3325 38.4167 52.5 38.4167C47.6675 38.4167 43.75 42.3342 43.75 47.1667C43.75 51.9992 47.6675 55.9167 52.5 55.9167Z" stroke="black" stroke-width="5" stroke-linecap="round" stroke-linejoin="round"/>
</svg>
