<svg width="70" height="71" viewBox="0 0 70 71" fill="none" xmlns="http://www.w3.org/2000/svg">
<path d="M11.6665 26.75V15.0833C11.6665 13.5362 12.2811 12.0525 13.375 10.9585C14.469 9.86458 15.9527 9.25 17.4998 9.25H52.4998C54.0469 9.25 55.5307 9.86458 56.6246 10.9585C57.7186 12.0525 58.3332 13.5362 58.3332 15.0833V26.75" stroke="black" stroke-width="5" stroke-linecap="round" stroke-linejoin="round"/>
<path d="M23.3335 23.8333V26.75" stroke="black" stroke-width="5" stroke-linecap="round" stroke-linejoin="round"/>
<path d="M35 23.8333V26.75" stroke="black" stroke-width="5" stroke-linecap="round" stroke-linejoin="round"/>
<path d="M46.6665 23.8333V26.75" stroke="black" stroke-width="5" stroke-linecap="round" stroke-linejoin="round"/>
<path d="M58.3335 26.75H11.6668C8.44517 26.75 5.8335 29.3617 5.8335 32.5833V55.9167C5.8335 59.1383 8.44517 61.75 11.6668 61.75H58.3335C61.5552 61.75 64.1668 59.1383 64.1668 55.9167V32.5833C64.1668 29.3617 61.5552 26.75 58.3335 26.75Z" stroke="black" stroke-width="5" stroke-linecap="round" stroke-linejoin="round"/>
<path d="M23.3333 50.0834C26.555 50.0834 29.1667 47.4717 29.1667 44.25C29.1667 41.0284 26.555 38.4167 23.3333 38.4167C20.1117 38.4167 17.5 41.0284 17.5 44.25C17.5 47.4717 20.1117 50.0834 23.3333 50.0834Z" stroke="black" stroke-width="5" stroke-linecap="round" stroke-linejoin="round"/>
<path d="M46.6668 50.0834C49.8885 50.0834 52.5002 47.4717 52.5002 44.25C52.5002 41.0284 49.8885 38.4167 46.6668 38.4167C43.4452 38.4167 40.8335 41.0284 40.8335 44.25C40.8335 47.4717 43.4452 50.0834 46.6668 50.0834Z" stroke="black" stroke-width="5" stroke-linecap="round" stroke-linejoin="round"/>
</svg>
