<svg width="80" height="81" viewBox="0 0 80 81" fill="none" xmlns="http://www.w3.org/2000/svg">
<g clip-path="url(#clip0_319_213)">
<path d="M78.1719 1.6406C79.3281 2.5781 80 3.99997 80 5.49997V28C80 32.1406 75.5156 35.5 70 35.5C64.4844 35.5 60 32.1406 60 28C60 23.8593 64.4844 20.5 70 20.5V11.5937L55 14.5937V33C55 37.1406 50.5156 40.5 45 40.5C39.4844 40.5 35 37.1406 35 33C35 28.8593 39.4844 25.5 45 25.5V10.5C45 8.10935 46.6875 6.06247 49.0156 5.59372L74.0156 0.593721C75.4844 0.296846 77 0.687471 78.1719 1.62497V1.6406ZM11.6719 48L13.5156 45.2187C14.4375 43.8281 16 43 17.6719 43H27.3125C28.9844 43 30.5469 43.8281 31.4688 45.2187L33.3281 48H37.5C41.6406 48 45 51.3593 45 55.5V73C45 77.1406 41.6406 80.5 37.5 80.5H7.5C3.35938 80.5 0 77.1406 0 73V55.5C0 51.3593 3.35938 48 7.5 48H11.6719ZM30 64.25C30 62.2608 29.2098 60.3532 27.8033 58.9467C26.3968 57.5401 24.4891 56.75 22.5 56.75C20.5109 56.75 18.6032 57.5401 17.1967 58.9467C15.7902 60.3532 15 62.2608 15 64.25C15 66.2391 15.7902 68.1467 17.1967 69.5533C18.6032 70.9598 20.5109 71.75 22.5 71.75C24.4891 71.75 26.3968 70.9598 27.8033 69.5533C29.2098 68.1467 30 66.2391 30 64.25ZM74.7969 43.9843L68.7969 58H77.5C78.5469 58 79.4688 58.6406 79.8438 59.625C80.2188 60.6093 79.9375 61.7031 79.1562 62.3906L59.1562 79.8906C58.2812 80.6562 56.9844 80.7187 56.0469 80.0312C55.1094 79.3437 54.7656 78.0937 55.2188 77.0312L61.2031 63H52.5C51.4531 63 50.5312 62.3593 50.1562 61.375C49.7812 60.3906 50.0625 59.2968 50.8438 58.6093L70.8438 41.1093C71.7188 40.3437 73.0156 40.2812 73.9531 40.9687C74.8906 41.6562 75.2344 42.9062 74.7812 43.9687L74.7969 43.9843ZM21.8281 34.7343C20.8125 35.75 19.1719 35.75 18.2344 34.7343L3.10938 19.125C-1.26562 14.5937 -1.03125 7.10935 3.89062 2.8906C8.10938 -0.781279 14.5781 -0.0781542 18.4844 3.90622L20.0469 5.54685L21.5312 3.90622C25.4375 -0.0781542 31.8281 -0.781279 36.2031 2.8906C41.0469 7.10935 41.2812 14.5937 36.9062 19.125L21.8438 34.7343H21.8281Z" fill="#43937F"/>
</g>
<defs>
<clipPath id="clip0_319_213">
<rect width="80" height="80" fill="white" transform="translate(0 0.5)"/>
</clipPath>
</defs>
</svg>
