<svg width="70" height="71" viewBox="0 0 70 71" fill="none" xmlns="http://www.w3.org/2000/svg">
<path d="M16.9168 33.4583L5.8335 64.6666L37.0418 53.6125" stroke="black" stroke-width="5" stroke-linecap="round" stroke-linejoin="round"/>
<path d="M11.6665 9.25H11.6957" stroke="black" stroke-width="5" stroke-linecap="round" stroke-linejoin="round"/>
<path d="M64.1665 23.8333H64.1957" stroke="black" stroke-width="5" stroke-linecap="round" stroke-linejoin="round"/>
<path d="M43.75 6.33331H43.7792" stroke="black" stroke-width="5" stroke-linecap="round" stroke-linejoin="round"/>
<path d="M64.1665 58.8333H64.1957" stroke="black" stroke-width="5" stroke-linecap="round" stroke-linejoin="round"/>
<path d="M64.1668 6.33331L57.6335 8.52081C55.7738 9.14028 54.1869 10.3864 53.1442 12.0463C52.1015 13.7061 51.6677 15.6765 51.9168 17.6208C52.2085 20.1291 50.2543 22.375 47.6877 22.375H46.5793C44.071 22.375 41.9127 24.125 41.446 26.575L40.8335 29.6666" stroke="black" stroke-width="5" stroke-linecap="round" stroke-linejoin="round"/>
<path d="M64.1668 38.4167L61.7752 37.4542C59.2668 36.4625 56.4668 38.0375 56.0002 40.6917C55.6793 42.7334 53.9002 44.25 51.8293 44.25H49.5835" stroke="black" stroke-width="5" stroke-linecap="round" stroke-linejoin="round"/>
<path d="M32.0833 6.33331L33.0458 8.72498C34.0375 11.2333 32.4625 14.0333 29.8083 14.5C27.7667 14.7916 26.25 16.6 26.25 18.6708V20.9166" stroke="black" stroke-width="5" stroke-linecap="round" stroke-linejoin="round"/>
<path d="M32.0835 38.4166C37.7127 44.0458 40.3377 50.5791 37.9168 53C35.496 55.4208 28.9627 52.7958 23.3335 47.1666C17.7043 41.5375 15.0793 35.0041 17.5002 32.5833C19.921 30.1625 26.4543 32.7875 32.0835 38.4166Z" stroke="black" stroke-width="5" stroke-linecap="round" stroke-linejoin="round"/>
</svg>
