<svg width="80" height="81" viewBox="0 0 80 81" fill="none" xmlns="http://www.w3.org/2000/svg">
<path d="M40.0002 27.1667L9.86687 57.3667C8.9024 58.2155 8.12219 59.2531 7.57441 60.4152C7.02663 61.5774 6.72291 62.8396 6.68201 64.1237C6.64111 65.4079 6.8639 66.6868 7.33662 67.8815C7.80934 69.0762 8.52195 70.1613 9.43044 71.0697C10.3389 71.9782 11.424 72.6909 12.6187 73.1636C13.8134 73.6363 15.0923 73.8591 16.3765 73.8182C17.6606 73.7773 18.9228 73.4736 20.085 72.9258C21.2471 72.378 22.2847 71.5978 23.1335 70.6333L53.3335 40.5" stroke="black" stroke-width="5" stroke-linecap="round" stroke-linejoin="round"/>
<path d="M56.6667 40.5C65.8714 40.5 73.3333 33.0381 73.3333 23.8333C73.3333 14.6286 65.8714 7.16666 56.6667 7.16666C47.4619 7.16666 40 14.6286 40 23.8333C40 33.0381 47.4619 40.5 56.6667 40.5Z" stroke="black" stroke-width="5" stroke-linecap="round" stroke-linejoin="round"/>
</svg>
