<svg width="80" height="81" viewBox="0 0 80 81" fill="none" xmlns="http://www.w3.org/2000/svg">
<path d="M59.9998 42.1667V33.8333C59.9998 32.0652 59.2975 30.3695 58.0472 29.1193C56.797 27.869 55.1013 27.1667 53.3332 27.1667C51.5651 27.1667 49.8694 27.869 48.6191 29.1193C47.3689 30.3695 46.6665 32.0652 46.6665 33.8333V38.5" stroke="black" stroke-width="5" stroke-linecap="round" stroke-linejoin="round"/>
<path d="M46.6668 37.1667V30.5C46.6668 28.7319 45.9644 27.0362 44.7142 25.786C43.464 24.5357 41.7683 23.8333 40.0002 23.8333C38.2321 23.8333 36.5364 24.5357 35.2861 25.786C34.0359 27.0362 33.3335 28.7319 33.3335 30.5V37.1667" stroke="black" stroke-width="5" stroke-linecap="round" stroke-linejoin="round"/>
<path d="M33.3333 35.5V17.1667C33.3333 15.3986 32.631 13.7029 31.3807 12.4526C30.1305 11.2024 28.4348 10.5 26.6667 10.5C24.8986 10.5 23.2029 11.2024 21.9526 12.4526C20.7024 13.7029 20 15.3986 20 17.1667V47.1667" stroke="black" stroke-width="5" stroke-linecap="round" stroke-linejoin="round"/>
<path d="M23.3335 50.5L17.4668 44.6333C16.2007 43.482 14.5403 42.8616 12.8294 42.9006C11.1185 42.9397 9.48816 43.6352 8.27592 44.8432C7.06367 46.0512 6.36239 47.679 6.31726 49.3898C6.27214 51.1005 6.88663 52.7631 8.03351 54.0333L20.0335 66.0333C25.0002 70.9667 30.6668 73.8333 40.0002 73.8333H46.6668C53.7393 73.8333 60.5221 71.0238 65.523 66.0228C70.524 61.0219 73.3335 54.2391 73.3335 47.1667V23.8333C73.3335 22.0652 72.6311 20.3695 71.3809 19.1193C70.1307 17.869 68.435 17.1667 66.6669 17.1667C64.8987 17.1667 63.203 17.869 61.9528 19.1193C60.7026 20.3695 60.0002 22.0652 60.0002 23.8333V40.5" stroke="black" stroke-width="5" stroke-linecap="round" stroke-linejoin="round"/>
</svg>
