<svg width="252" height="155" viewBox="0 0 252 155" fill="none" xmlns="http://www.w3.org/2000/svg">
<path d="M215.232 153.485H9.88178C4.03858 153.485 0.135571 148.743 1.16459 142.9L24.3198 11.5848C25.3488 5.73705 30.9245 1 36.7677 1H242.118C247.961 1 251.864 5.73705 250.835 11.5848L227.689 142.9C226.656 148.73 221.08 153.485 215.232 153.485Z" fill="#43937F" stroke="#0D1E4F" stroke-width="1.2" stroke-linecap="round" stroke-linejoin="round"/>
<path d="M199.497 127.587C204.863 122.674 205.872 115.044 201.752 110.544C197.631 106.044 189.942 106.379 184.576 111.293C179.21 116.206 178.201 123.837 182.321 128.336C186.441 132.836 194.131 132.501 199.497 127.587Z" fill="#FFA94A"/>
<path d="M216.827 47.0609H192.77L197.013 22.9991H221.07L216.827 47.0609Z" fill="#FF5F00"/>
<path d="M50.5434 44.8397H126.65C127.189 44.8279 127.724 44.9239 128.224 45.1225C128.725 45.321 129.181 45.618 129.565 45.9957L142.162 58.7337C142.613 59.2109 142.942 59.7897 143.121 60.421C143.3 61.0523 143.324 61.7175 143.191 62.3602L136.301 101.427C136.038 102.742 135.34 103.93 134.318 104.799C133.296 105.668 132.011 106.166 130.671 106.214H39.7183C37.0755 106.214 35.3076 104.069 35.7745 101.427L44.9088 49.6177C45.174 48.3037 45.8743 47.1175 46.8967 46.2506C47.9191 45.3837 49.2038 44.8866 50.5434 44.8397Z" fill="#D9D9D9"/>
<path d="M128.413 44.8397L126.573 55.2659C126.119 57.9132 127.874 60.0528 130.517 60.0528H143.59" fill="#008693"/>
<path d="M112.968 79.3824C118.333 74.4691 119.343 66.8383 115.223 62.3386C111.102 57.8388 103.412 58.1741 98.0465 63.0874C92.6808 68.0007 91.6713 75.6315 95.7916 80.1312C99.912 84.6309 107.602 84.2957 112.968 79.3824Z" fill="#FFA94A"/>
<path d="M75.9111 95.3024H99.9684L104.211 71.2452H80.1541L75.9111 95.3024Z" fill="#FF5F00"/>
<path d="M80.3577 55.7555L89.0205 77.3604H64.0747L80.3577 55.7555Z" fill="black"/>
<path d="M201.682 64.7311L185.399 86.3315H210.345L201.682 64.7311Z" fill="black"/>
<path d="M140.517 77.5372L191.343 36.5079" stroke="#0D1E4F" stroke-width="1.2" stroke-linecap="round" stroke-linejoin="round"/>
<path d="M177.766 117.719L141.411 76.6895" stroke="#0D1E4F" stroke-width="1.2" stroke-linecap="round" stroke-linejoin="round"/>
<path d="M141.411 76.6895H184.258" stroke="#0D1E4F" stroke-width="1.2" stroke-linecap="round" stroke-linejoin="round"/>
<path d="M133.482 30.855H63.4907L64.8733 22.9991H134.865L133.482 30.855Z" fill="#FFA94A"/>
</svg>
