<svg width="251" height="156" viewBox="0 0 251 156" fill="none" xmlns="http://www.w3.org/2000/svg">
<path d="M210.333 154.443H13.6129C4.98212 154.443 -0.779321 147.45 0.744296 138.823L22.2939 16.6193C23.8129 7.99312 32.0423 1 40.6685 1H237.388C246.015 1 251.776 7.99312 250.257 16.6193L228.707 138.823C227.188 147.45 218.959 154.443 210.333 154.443Z" fill="#43937F"/>
<path d="M215.223 1L188.167 154.443" stroke="#0D1E4F" stroke-width="1.2" stroke-linecap="round" stroke-linejoin="round"/>
<path d="M208.366 39.866H246.279" stroke="#0D1E4F" stroke-width="1.2" stroke-linecap="round" stroke-linejoin="round"/>
<path d="M201.61 78.1935H239.518" stroke="#0D1E4F" stroke-width="1.2" stroke-linecap="round" stroke-linejoin="round"/>
<path d="M194.851 116.521H232.64" stroke="#0D1E4F" stroke-width="1.2" stroke-linecap="round" stroke-linejoin="round"/>
<path d="M222.777 20.6473L227.832 26.7828L239.432 16.9204" stroke="white" stroke-width="1.2" stroke-linecap="round" stroke-linejoin="round"/>
<path d="M216.103 58.4959L221.157 64.6314L232.758 54.769" stroke="white" stroke-width="1.2" stroke-linecap="round" stroke-linejoin="round"/>
<path d="M210.452 90.5605L223.986 104.538" stroke="#0D1E4F" stroke-width="1.2" stroke-linecap="round" stroke-linejoin="round"/>
<path d="M207.984 104.538L226.45 90.5605" stroke="#0D1E4F" stroke-width="1.2" stroke-linecap="round" stroke-linejoin="round"/>
<path d="M203.778 128.409L217.312 142.386" stroke="#0D1E4F" stroke-width="1.2" stroke-linecap="round" stroke-linejoin="round"/>
<path d="M201.31 142.386L219.775 128.409" stroke="#0D1E4F" stroke-width="1.2" stroke-linecap="round" stroke-linejoin="round"/>
<path d="M75.5292 76.4739L76.3822 71.6248H185.22L183.318 82.4086H74.4663C74.7583 80.7664 75.0502 79.106 75.3421 77.4501C75.4014 77.1034 75.4562 76.7978 75.5292 76.4739Z" fill="#FF5F00"/>
<path d="M58.7423 97.4804L59.682 92.1432H147.869L145.967 102.932H57.7798C58.0398 101.449 58.3044 99.9529 58.569 98.4567C58.6511 98.1328 58.683 97.8043 58.7423 97.4804Z" fill="black"/>
<path d="M80.7387 117.511L81.5917 112.662H149.133L147.226 123.46H79.6895C79.9814 121.808 80.2734 120.148 80.5653 118.492C80.6246 118.159 80.6794 117.84 80.7387 117.511Z" fill="#FFA94A"/>
<path d="M49.1893 52.6752L37.6572 118.063H80.6424" stroke="#0D1E4F" stroke-width="1.2" stroke-linecap="round" stroke-linejoin="round"/>
<path d="M58.7422 97.4805H41.2891" stroke="#0D1E4F" stroke-width="1.2" stroke-linecap="round" stroke-linejoin="round"/>
<path d="M75.42 77.0165H44.8975" stroke="#0D1E4F" stroke-width="1.2" stroke-linecap="round" stroke-linejoin="round"/>
<path d="M163.854 52.6753H41.7728C38.5796 52.6753 36.4265 50.0751 36.9921 46.8728L38.5978 37.7813C39.1589 34.5881 42.2153 31.9833 45.4404 31.9833H167.521C170.715 31.9833 172.863 34.5789 172.297 37.7813L170.696 46.8728C170.112 50.0751 167.056 52.6753 163.854 52.6753Z" fill="#FFA94A"/>
</svg>
